{
	"asset":{
		"version":"2.0",
		"generator":"Created using the official Cinema 4D glTF Exporter 1.000x284978"
	},
	"scenes":[{
		"nodes":[0]
	}],
	"nodes":[{
		"name":"Extrude",
		"translation":[0.0,
		0.0,
		0.0],
		"rotation":[0.0,
		0.0,
		0.0,
		-1.0],
		"scale":[1.0,
		1.0,
		1.0],
		"mesh":0
	}],
	"meshes":[{
		"name":"Extrude",
		"primitives":[{
			"attributes":{
				"POSITION":1,
				"NORMAL":2,
				"TEXCOORD_0":3
			},
			"indices":0
		}]
	}],
	"accessors":[{
		"bufferView":0,
		"type":"SCALAR",
		"componentType":5123,
		"count":3012,
		"byteOffset":0,
		"min":[0],
		"max":[1259]
	},
	{
		"bufferView":1,
		"type":"VEC3",
		"componentType":5126,
		"count":1260,
		"byteOffset":0,
		"min":[-211.84608459472657,
		-204.10317993164063,
		-5.942098140716553],
		"max":[185.92007446289063,
		194.77833557128907,
		19.457901000976564]
	},
	{
		"bufferView":1,
		"type":"VEC3",
		"componentType":5126,
		"count":1260,
		"byteOffset":12,
		"min":[-0.9969552159309387,
		-0.999994695186615,
		-1.0],
		"max":[0.9974420070648193,
		0.999994695186615,
		1.0]
	},
	{
		"bufferView":1,
		"type":"VEC2",
		"componentType":5126,
		"count":1260,
		"byteOffset":24,
		"min":[0.0,
		0.0],
		"max":[1.0,
		1.0]
	}],
	"bufferViews":[{
		"buffer":0,
		"byteOffset":0,
		"byteLength":6024,
		"target":34963
	},
	{
		"buffer":0,
		"byteOffset":6024,
		"byteLength":40320,
		"target":34962,
		"byteStride":32
	}],
	"buffers":[{
		"uri":"data:application/octet-stream;base64,",
		"byteLength":46344
	}]
}